inDegrees=yes
name=ik_lifting_orientations
DataType=double
version=3
OpenSimVersion=4.5-2024-01-10-34fd6af
endheader
time	pelvis_tilt	pelvis_list	pelvis_rotation	pelvis_tx	pelvis_ty	pelvis_tz	hip_flexion_r	hip_adduction_r	hip_rotation_r	knee_angle_r	knee_angle_r_beta	ankle_angle_r	subtalar_angle_r	mtp_angle_r	hip_flexion_l	hip_adduction_l	hip_rotation_l	knee_angle_l	knee_angle_l_beta	ankle_angle_l	subtalar_angle_l	mtp_angle_l	lumbar_extension	lumbar_bending	lumbar_rotation	arm_flex_r	arm_add_r	arm_rot_r	elbow_flex_r	pro_sup_r	wrist_flex_r	wrist_dev_r	arm_flex_l	arm_add_l	arm_rot_l	elbow_flex_l	pro_sup_l	wrist_flex_l	wrist_dev_l
0.83	13.58948582080017	7.597480489637841	-129.3777907911881	0	0.9399999998679526	0	45.07132047969196	-10.07475186559609	0	60.12721063045146	1.049417795541513	-5.017242622440151	0	0	45.07132047969196	-10.07475186559609	0	60.12721063045146	1.049417795541513	-5.017242622440151	0	0	-40.27957350000042	-32.50698346856011	19.03982161352245	49.31144696664362	-6.254070824908696	6.584994414834143	1.807168643007579	1.093962586011803	0	0	0	-12.0622287335189	0	88.92111771093006	1.093962586011803	0	0
0.84	14.68534777588384	8.081501055216057	-130.5037775513356	0	0.9399999998679526	0	45.07127404370971	-10.07458169475097	0	60.12714575611763	1.049416663270788	-5.017191419960462	0	0	45.07127404370971	-10.07458169475097	0	60.12714575611763	1.049416663270788	-5.017191419960462	0	0	-40.95052515660075	-34.10461079753807	18.66050061771343	51.0034471923956	-6.487288841373566	6.398927181420031	1.504596519799967	1.093467092174287	0	0	0	-12.06320807867312	0	88.92160629323867	1.093467092174287	0	0
0.85	15.88555904892041	8.515747545678622	-132.0147383528772	0	0.9399999998679526	0	45.07124860457705	-10.07448925863616	0	60.12711001411898	1.04941603945523	-5.017163662796789	0	0	45.07124860457705	-10.07448925863616	0	60.12711001411898	1.04941603945523	-5.017163662796789	0	0	-40.75784760532984	-35.72414744823671	18.87274370347851	52.16335704038968	-6.795243419126607	6.043609904664249	1.186483594557419	1.093195015563679	0	0	0	-12.06374686720765	0	88.92187457472296	1.093195015563679	0	0
0.86	17.17047975877936	9.156665732605044	-133.087521027324	0	0.9399999998679526	0	45.0712212175746	-10.07438967743441	0	60.12707157463236	1.049415368559626	-5.017133760983798	0	0	45.0712212175746	-10.07438967743441	0	60.12707157463236	1.049415368559626	-5.017133760983798	0	0	-40.5551897995708	-36.97897134088377	18.69969813343195	53.27066025212999	-7.133596777058896	5.787093932782846	0.9839756371838282	1.092902201309474	0	0	0	-12.06432655319363	0	88.92216330458605	1.092902201309474	0	0
0.87	18.43051095382431	9.77045425241433	-134.16575427692	0	0.9399999998679526	0	45.07110994527094	-10.07398416318998	0	60.12691613233763	1.049412655579786	-5.017012052933532	0	0	45.07110994527094	-10.07398416318998	0	60.12691613233763	1.049412655579786	-5.017012052933532	0	0	-41.09293147015804	-38.25421455271427	17.99524965865875	54.96834301217397	-7.507596695746515	5.549855977159568	0.7882216568768197	1.091714316124957	0	0	0	-12.06667482411398	0	88.92333462024561	1.091714316124957	0	0
0.88	19.46414113582714	10.2775617337644	-134.9011470603322	0	0.9399999998679526	0	45.07106121109813	-10.07380685165173	0	60.12684802238294	1.049411466836824	-5.016958869708023	0	0	45.07106121109813	-10.07380685165173	0	60.12684802238294	1.049411466836824	-5.016958869708023	0	0	-42.16106913270365	-39.37702162438872	17.00074542562953	56.71333493848682	-7.887061436739581	5.265829376494272	0.5873642596809536	1.091193878699594	0	0	0	-12.0677039410862	0	88.92384779821789	1.091193878699594	0	0
0.89	20.31228877999481	10.62945070211956	-135.6403663468202	0	0.9399999998679526	0	45.0710127092416	-10.07363052896018	0	60.12678027167529	1.049410284363904	-5.016906011519636	0	0	45.0710127092416	-10.07363052896018	0	60.12678027167529	1.049410284363904	-5.016906011519636	0	0	-43.49807989943224	-40.46775065494705	15.97199756052119	58.40809917642471	-8.274402407058709	5.293777594194659	0.3787845360540873	1.090675948793664	0	0	0	-12.0687280056157	0	88.92435850364799	1.090675948793664	0	0
0.9	21.16615038273848	10.97270245350481	-136.3738536271077	0	0.9399999998679526	0	45.07096124814628	-10.07344369934298	0	60.12670839939587	1.049409029955988	-5.01685004088136	0	0	45.07096124814628	-10.07344369934298	0	60.12670839939587	1.049409029955988	-5.01685004088136	0	0	-44.44313704642655	-41.37994227077649	15.05560605535071	59.71753142014006	-8.61687123099358	5.413623550868281	0.2511434285965433	1.090126369366039	0	0	0	-12.06981467411992	0	88.92490041712983	1.090126369366039	0	0
0.91	21.96676551545789	11.07724803113389	-137.5965297082081	0	0.9399999998679526	0	45.07091875186814	-10.07328968930892	0	60.1266490374436	1.04940799389447	-5.016803936874448	0	0	45.07091875186814	-10.07328968930892	0	60.1266490374436	1.04940799389447	-5.016803936874448	0	0	-45.40213127064874	-42.67176429350079	14.40921772780453	60.80129412390226	-9.076026253968754	5.741588238244423	0.1271989143530238	1.089672431135043	0	0	0	-12.07071235109931	0	88.92534802349189	1.089672431135043	0	0
0.92	22.711017365578	10.96912560789839	-139.0339108336034	0	0.9399999998679526	0	45.07086464171469	-10.07309397713374	0	60.12657343016377	1.049406674298499	-5.016745396053889	0	0	45.07086464171469	-10.07309397713374	0	60.12657343016377	1.049406674298499	-5.016745396053889	0	0	-46.70126752345266	-44.2368083792841	13.67245370182964	62.2152842552924	-9.5415813068159	5.832124942964913	0.08717167540205054	1.08909427954421	0	0	0	-12.07185586150882	0	88.9259181105958	1.08909427954421	0	0
0.93	23.347567591114	10.81278843595458	-140.4038488582372	0	0.9399999998679526	0	45.07080650926441	-10.07288421701071	0	60.12649216125028	1.049405255888379	-5.016682710859794	0	0	45.07080650926441	-10.07288421701071	0	60.12649216125028	1.049405255888379	-5.016682710859794	0	0	-48.37796471250533	-45.82726714538217	12.61086914760029	64.07170872133716	-9.936784714553806	5.789804830111075	0.06571349817319663	1.08847292136431	0	0	0	-12.07308514213604	0	88.92653080161487	1.08847292136431	0	0
0.9399999999999999	24.1250250320741	10.78116470192108	-141.6753980547025	0	0.9399999998679526	0	45.07074859620562	-10.07267570853233	0	60.12641117886511	1.049403842479121	-5.016620457060156	0	0	45.07074859620562	-10.07267570853233	0	60.12641117886511	1.049403842479121	-5.016620457060156	0	0	-50.03547781424617	-47.34651054552845	11.34621283905993	65.93438962187895	-10.26726498713737	5.612058799539164	0.05376444471515357	1.087853733656424	0	0	0	-12.07431034259205	0	88.92714135244029	1.087853733656424	0	0
0.95	24.99951954805324	10.86175595414948	-142.9678999926278	0	0.9399999998679526	0	45.07071930970285	-10.07257108180426	0	60.12637001465624	1.049403124028143	-5.016589276627202	0	0	45.07071930970285	-10.07257108180426	0	60.12637001465624	1.049403124028143	-5.016589276627202	0	0	-50.29493025956371	-48.62332502231799	11.0538708099542	67.03125763480801	-10.74810835273597	5.438766635938991	0.04612423197062034	1.087539947136134	0	0	0	-12.07493232978386	0	88.92745076204471	1.087539947136134	0	0
0.96	25.99658089551356	11.02997890769303	-143.9003025081685	0	0.9399999998679526	0	45.07068485846789	-10.07244796967601	0	60.12632163320005	1.049402279612435	-5.016552593193714	0	0	45.07068485846789	-10.07244796967601	0	60.12632163320005	1.049402279612435	-5.016552593193714	0	0	-50.11623420828725	-49.26998740989703	10.78861232539664	67.79225638172052	-11.32161021638984	5.449597616609109	0.04269671762660419	1.087170914716693	0	0	0	-12.07566365572366	0	88.9278146469389	1.087170914716693	0	0
